<svg xmlns="http://www.w3.org/2000/svg" width="40" height="15" viewBox="0 0 40 15" fill="none">
<rect width="40" height="15" rx="2" fill="#C4C4C4"/>
<path d="M8.87 11V9.6H5.38V4H3.84V11H8.87ZM14.3326 4H12.5826L10.8826 6.81L9.21258 4H7.41258L10.1026 8.24V11H11.6426V8.21L14.3326 4ZM20.7408 11L19.0308 8.5C19.9208 8.17 20.5308 7.46 20.5308 6.33V6.31C20.5308 4.87 19.5408 4 17.8908 4H14.6908V11H16.2308V8.76H17.4408L18.9408 11H20.7408ZM18.9708 6.41C18.9708 7 18.5408 7.4 17.7908 7.4H16.2308V5.39H17.7608C18.5108 5.39 18.9708 5.73 18.9708 6.39V6.41ZM22.9273 11V4H21.3873V11H22.9273ZM30.2267 9.87L29.2467 8.88C28.6967 9.38 28.2067 9.7 27.4067 9.7C26.2067 9.7 25.3767 8.7 25.3767 7.5V7.48C25.3767 6.28 26.2267 5.3 27.4067 5.3C28.1067 5.3 28.6567 5.6 29.1967 6.09L30.1767 4.96C29.5267 4.32 28.7367 3.88 27.4167 3.88C25.2667 3.88 23.7667 5.51 23.7667 7.5V7.52C23.7667 9.53 25.2967 11.12 27.3567 11.12C28.7067 11.12 29.5067 10.64 30.2267 9.87ZM35.9195 8.93V8.91C35.9195 7.69 35.1195 7.18 33.6995 6.81C32.4895 6.5 32.1895 6.35 32.1895 5.89V5.87C32.1895 5.53 32.4995 5.26 33.0895 5.26C33.6795 5.26 34.2895 5.52 34.9095 5.95L35.7095 4.79C34.9995 4.22 34.1295 3.9 33.1095 3.9C31.6795 3.9 30.6595 4.74 30.6595 6.01V6.03C30.6595 7.42 31.5695 7.81 32.9795 8.17C34.1495 8.47 34.3895 8.67 34.3895 9.06V9.08C34.3895 9.49 34.0095 9.74 33.3795 9.74C32.5795 9.74 31.9195 9.41 31.2895 8.89L30.3795 9.98C31.2195 10.73 32.2895 11.1 33.3495 11.1C34.8595 11.1 35.9195 10.32 35.9195 8.93Z" fill="#121212"/>
</svg>